<?xml version="1.0" encoding="UTF-8"?>
<svg id="Layer_1" data-name="Layer 1" xmlns="http://www.w3.org/2000/svg" viewBox="0 0 1366 773">
  <defs>
    <style>
      .cls-1 {
        fill: #fff;
      }
    </style>
  </defs>
  <polygon class="cls-1" points="464.44 407.71 449.88 407.71 474.86 339.08 493.56 339.08 518.54 407.71 503.95 407.71 484.19 354.76 464.44 407.71"/>
  <path class="cls-1" d="m556.78,385.79v-29.55h14.27v51.47h-13.71v-9.35h-.54c-1.16,3.02-3.09,5.44-5.78,7.27-2.69,1.83-5.97,2.75-9.83,2.75-3.44,0-6.47-.78-9.08-2.35-2.61-1.56-4.65-3.79-6.12-6.67s-2.21-6.33-2.23-10.36v-32.77h14.28v30.23c.02,3.04.84,5.44,2.45,7.2,1.61,1.77,3.76,2.65,6.47,2.65,1.72,0,3.33-.4,4.83-1.19,1.5-.79,2.71-1.97,3.64-3.53s1.38-3.5,1.36-5.8"/>
  <path class="cls-1" d="m604.22,428.08c-4.62,0-8.58-.63-11.88-1.89-3.3-1.26-5.92-2.98-7.86-5.14-1.94-2.17-3.21-4.6-3.79-7.31l13.2-1.78c.4,1.03,1.04,1.99,1.91,2.88.87.89,2.03,1.62,3.47,2.16,1.44.55,3.2.82,5.28.82,3.1,0,5.67-.76,7.69-2.26,2.02-1.51,3.03-4.03,3.03-7.56v-9.42h-.6c-.62,1.43-1.56,2.78-2.81,4.05-1.25,1.27-2.86,2.31-4.83,3.12-1.97.8-4.31,1.21-7.04,1.21-3.86,0-7.38-.9-10.54-2.7-3.16-1.8-5.67-4.56-7.54-8.28-1.86-3.72-2.8-8.43-2.8-14.12s.95-10.7,2.85-14.61c1.9-3.91,4.43-6.83,7.59-8.78,3.16-1.94,6.63-2.91,10.41-2.91,2.88,0,5.29.49,7.24,1.46,1.94.97,3.51,2.18,4.71,3.62,1.19,1.44,2.12,2.85,2.76,4.24h.54v-8.65h14.18v51.97c0,4.38-1.07,8.04-3.22,10.99-2.14,2.95-5.11,5.17-8.9,6.65-3.79,1.49-8.14,2.23-13.05,2.23m.3-31.83c2.3,0,4.25-.58,5.85-1.73,1.6-1.15,2.83-2.8,3.69-4.96.86-2.16,1.29-4.74,1.29-7.76s-.43-5.64-1.27-7.86c-.85-2.22-2.08-3.95-3.69-5.18-1.61-1.23-3.56-1.84-5.86-1.84s-4.32.63-5.93,1.89c-1.61,1.26-2.83,3.01-3.65,5.24-.83,2.23-1.24,4.81-1.24,7.74s.42,5.54,1.26,7.69c.84,2.15,2.05,3.82,3.65,4.99,1.6,1.17,3.57,1.76,5.91,1.76"/>
  <path class="cls-1" d="m639.37,407.71v-51.47h13.6v9.08h.6c1.07-3.02,2.86-5.4,5.36-7.14,2.5-1.74,5.49-2.61,8.98-2.61s6.53.88,9.01,2.63c2.48,1.75,4.13,4.13,4.96,7.12h.54c1.05-2.95,2.95-5.31,5.71-7.09,2.76-1.78,6.03-2.66,9.8-2.66,4.8,0,8.71,1.52,11.71,4.57,3.01,3.05,4.51,7.37,4.51,12.95v34.62h-14.24v-31.8c0-2.86-.76-5-2.28-6.43-1.52-1.43-3.42-2.15-5.7-2.15-2.59,0-4.61.82-6.07,2.46s-2.18,3.8-2.18,6.48v31.43h-13.84v-32.1c0-2.52-.72-4.53-2.16-6.03-1.44-1.5-3.34-2.25-5.68-2.25-1.59,0-3.01.4-4.27,1.19-1.26.79-2.26,1.9-3,3.32-.74,1.42-1.11,3.08-1.11,4.98v30.9h-14.28Z"/>
  <path class="cls-1" d="m771.09,385.62v-3.92c0-4.38-.61-8.2-1.84-11.48-1.23-3.27-2.94-5.99-5.14-8.16-2.2-2.16-4.77-3.79-7.71-4.88-2.94-1.08-6.1-1.62-9.5-1.62-5.05,0-9.44,1.12-13.19,3.35-3.74,2.23-6.64,5.35-8.7,9.35-2.06,4-3.08,8.65-3.08,13.94s1.03,10.12,3.08,14.09c2.05,3.97,4.99,7.03,8.8,9.18,3.81,2.15,8.36,3.23,13.66,3.23,4.24,0,7.99-.65,11.24-1.96,3.25-1.31,5.91-3.14,7.97-5.5,2.07-2.36,3.44-5.12,4.11-8.29l-13.2-.87c-.49,1.3-1.21,2.39-2.15,3.28-.94.89-2.07,1.56-3.38,2.01-1.32.45-2.77.67-4.36.67-2.39,0-4.46-.5-6.2-1.51-1.74-1.01-3.09-2.44-4.04-4.29-.95-1.85-1.42-4.05-1.42-6.6v-.03h35.05Zm-29.71-17.91c1.66-.99,3.58-1.49,5.75-1.49s3.9.45,5.48,1.36c1.58.9,2.81,2.15,3.7,3.74.89,1.59,1.34,3.41,1.34,5.46h-21.58c.09-1.85.54-3.54,1.41-5.08.94-1.66,2.24-2.99,3.9-3.99Z"/>
  <path class="cls-1" d="m793.26,377.95v29.76h-14.28v-51.47h13.61v9.08h.6c1.14-2.99,3.05-5.37,5.73-7.12,2.68-1.76,5.93-2.63,9.75-2.63,3.57,0,6.69.78,9.35,2.34,2.66,1.56,4.72,3.79,6.2,6.68,1.48,2.89,2.21,6.34,2.21,10.34v32.77h-14.28v-30.23c.02-3.15-.78-5.61-2.41-7.39-1.63-1.78-3.88-2.66-6.73-2.66-1.92,0-3.61.41-5.08,1.24-1.46.83-2.6,2.03-3.42,3.6-.82,1.58-1.23,3.47-1.26,5.68"/>
  <path class="cls-1" d="m862.32,396.45c-.36.07-.87.16-1.54.28-.67.12-1.34.18-2.01.18-.96,0-1.8-.14-2.53-.43-.73-.29-1.29-.8-1.69-1.53-.4-.73-.6-1.75-.6-3.07v-24.93h9.68v-10.72h-9.68v-12.33h-14.27v12.33h-7.04v10.72h7.04v26.81c-.02,3.37.68,6.17,2.11,8.38,1.43,2.21,3.43,3.84,6.02,4.89,2.58,1.05,5.59,1.51,9.03,1.38,1.85-.07,3.43-.25,4.72-.55,1.3-.3,2.3-.56,3.02-.79l-2.24-10.62Z"/>
  <path class="cls-1" d="m886.17,408.68c-3.29,0-6.21-.58-8.78-1.73-2.57-1.15-4.6-2.86-6.08-5.13-1.49-2.27-2.23-5.1-2.23-8.5,0-2.86.53-5.26,1.58-7.2,1.05-1.95,2.48-3.51,4.29-4.69,1.81-1.18,3.87-2.08,6.18-2.68,2.31-.6,4.74-1.03,7.29-1.27,2.99-.31,5.41-.61,7.24-.89,1.83-.28,3.16-.7,3.99-1.26.83-.56,1.24-1.39,1.24-2.48v-.2c0-2.12-.67-3.77-1.99-4.93-1.33-1.16-3.21-1.74-5.65-1.74-2.57,0-4.61.57-6.13,1.69-1.52,1.13-2.53,2.54-3.02,4.24l-13.2-1.07c.67-3.13,1.99-5.83,3.95-8.12,1.97-2.29,4.51-4.05,7.62-5.3,3.12-1.24,6.73-1.86,10.84-1.86,2.86,0,5.6.34,8.23,1.01,2.62.67,4.96,1.71,7,3.12,2.04,1.41,3.66,3.21,4.84,5.41,1.18,2.2,1.78,4.83,1.78,7.89v34.72h-13.54v-7.14h-.4c-.83,1.61-1.93,3.02-3.32,4.24-1.39,1.22-3.05,2.17-4.99,2.85-1.94.68-4.19,1.02-6.73,1.02m4.09-9.85c2.1,0,3.95-.42,5.56-1.26,1.61-.84,2.87-1.97,3.79-3.4.92-1.43,1.37-3.05,1.37-4.86v-5.46c-.45.29-1.05.55-1.83.79s-1.64.45-2.6.64c-.96.19-1.92.36-2.88.5-.96.15-1.83.27-2.61.39-1.68.25-3.14.64-4.39,1.17-1.25.53-2.22,1.26-2.92,2.16-.69.9-1.04,2.03-1.04,3.37,0,1.94.71,3.42,2.13,4.44,1.42,1.02,3.22,1.52,5.41,1.52"/>
  <rect class="cls-1" x="924.83" y="339.08" width="14.28" height="68.63"/>
  <polygon class="cls-1" points="453.69 366.4 443.5 339.08 443.49 339.08 437.09 339.08 437.09 339.08 426.89 366.4 433.3 366.4 440.29 347.67 447.28 366.4 453.69 366.4"/>
</svg>